<svg height="128" viewBox="0 0 128 128" width="128" xmlns="http://www.w3.org/2000/svg" xmlns:xlink="http://www.w3.org/1999/xlink"><clipPath id="a"><path d="m0 864h720v-864h-720z" transform="translate(-211.54981 -392.86041)"/></clipPath><clipPath id="b"><path d="m0 864h720v-864h-720z" transform="translate(-210.8599 -516.16991)"/></clipPath><clipPath id="c"><path d="m0 864h720v-864h-720z" transform="translate(-211.54981 -266.86041)"/></clipPath><clipPath id="d"><path d="m0 864h720v-864h-720z" transform="translate(-423.13961 -571.96001)"/></clipPath><clipPath id="e"><path d="m0 864h720v-864h-720z" transform="translate(-271.52001 -535.66021)"/></clipPath><clipPath id="f"><path d="m0 864h720v-864h-720z" transform="translate(-335.15921 -440.70361)"/></clipPath><clipPath id="g"><path d="m0 864h720v-864h-720z" transform="translate(-627.12011 -193.44921)"/></clipPath><clipPath id="h"><path d="m0 864h720v-864h-720z" transform="translate(-572.78032 -205.7881)"/></clipPath><clipPath id="i"><path d="m0 864h720v-864h-720z" transform="translate(-279.56011 -736.43992)"/></clipPath><clipPath id="j"><path d="m0 864h720v-864h-720z" transform="translate(-100.3999 -224.08011)"/></clipPath><clipPath id="k"><path d="m0 864h720v-864h-720z" transform="translate(-458.71971 -651.52001)"/></clipPath><path d="m32 4h64a28 28 45 0 1 28 28v64a28 28 135 0 1 -28 28h-64a28 28 45 0 1 -28-28v-64a28 28 135 0 1 28-28z" fill="#fff" height="120" stroke-linecap="round" stroke-linejoin="round" stroke-width="6.02505" transform="matrix(1.0666667 0 0 1.0666667 -4.266667 -4.266667)" width="120" x="4" y="4"/><path clip-path="url(#a)" d="m0 0c0-.381-.31-.69-.69-.69h-61.2c-.38 0-.69.309-.69.69v62.64c0 .38.31.69.69.69h61.2c.38 0 .69-.31.69-.69zm17.7 62.64c0 10.14-8.25 18.39-18.39 18.39h-61.2c-10.14 0-18.39-8.25-18.39-18.39v-62.64c0-10.141 8.25-18.39 18.39-18.39h61.2c10.14 0 18.39 8.249 18.39 18.39z" transform="matrix(.17452302 0 0 -.17452302 38.633908 70.198226)"/><path clip-path="url(#b)" d="m0 0h-61.2c-.38 0-.69.31-.69.69v68.64c0 .38.31.69.69.69h61.2c.38 0 .69-.31.69-.69v-6.668l-29.43-34.472-11.742 11.538c-3.456 3.456-9.06 3.456-12.516 0s-3.456-9.06 0-12.516l18.96-18.96c1.661-1.661 3.913-2.592 6.258-2.592.041 0 .082.001.124.001 2.389.033 4.664 1.032 6.306 2.768l22.04 21.217v-28.956c0-.38-.31-.69-.69-.69m18.39 46.686 7.836 7.543s3.594 3.241.354 9.241c-1.861 3.447-5.46 5.067-8.19 5.826v.034c0 10.14-8.25 18.39-18.39 18.39h-61.2c-10.14 0-18.39-8.25-18.39-18.39v-68.64c0-10.14 8.25-18.39 18.39-18.39h61.2c10.14 0 18.39 8.25 18.39 18.39z" transform="matrix(.17452302 0 0 -.17452302 38.513505 48.677879)"/><path clip-path="url(#c)" d="m0 0c0-.381-.31-.69-.69-.69h-61.2c-.38 0-.69.309-.69.69v62.64c0 .381.31.69.69.69h61.2c.38 0 .69-.309.69-.69zm-.69 81.029h-61.2c-10.14 0-18.39-8.249-18.39-18.389v-62.64c0-10.141 8.25-18.39 18.39-18.39h61.2c10.14 0 18.39 8.249 18.39 18.39v62.64c0 10.14-8.25 18.389-18.39 18.389" transform="matrix(.17452302 0 0 -.17452302 38.633908 92.188127)"/><path clip-path="url(#d)" d="m0 0c0 5.799-4.701 10.5-10.5 10.5h-141.12c-5.798 0-10.5-4.701-10.5-10.5s4.702-10.5 10.5-10.5h141.12c5.799 0 10.5 4.701 10.5 10.5" transform="matrix(.17452302 0 0 -.17452302 75.5612 38.941222)"/><path clip-path="url(#e)" d="m0 0c-5.799 0-10.5-4.701-10.5-10.5s4.701-10.5 10.5-10.5h91.12c5.798 0 10.5 4.701 10.5 10.5s-4.702 10.5-10.5 10.5z" transform="matrix(.17452302 0 0 -.17452302 49.10009 45.276373)"/><path clip-path="url(#f)" d="m0 0c.56.216 1.096.479 1.602.801 1.525.973 4.17 3.153 3.999 6.495-.102 1.982-.528 3.447-1.312 4.642-1.293 1.967-3.606 3.019-5.96 3.019h-61.62c-5.781 0-10.74-4.523-10.846-10.303-.108-5.889 4.634-10.697 10.498-10.697h47.981z" transform="matrix(.17452302 0 0 -.17452302 60.206595 61.848486)"/><path clip-path="url(#g)" d="m0 0-150.32-66.343v189.894l59.56 23.955v-38.931c0-3.008 3.05-5.054 5.833-3.913l37.219 15.26c2.993 1.227 4.948 4.141 4.948 7.376v39.514l42.76 17.198zm-161.929 142.593-143.925 57.305 76.454 29.851 143.699-56.497zm-10.391-209.851-151.8 67.707v183.042l150.188-59.799c.466-.726 1.007-1.384 1.612-1.967zm9.126 322.858 144.838-55.261-37.624-15.133-143.253 56.322zm178.115-44.412-174.24 66.48c-2.552.974-5.376.962-7.922-.031l-170.88-66.719c-1.62-.633-2.995-1.614-4.095-2.815-2.456-2.077-3.904-5.136-3.904-8.392v-206.4c0-4.342 2.554-8.278 6.519-10.046l173.8-77.52c1.432-.639 2.958-.954 4.48-.954 2.094 0 4.178.598 5.989 1.772.772.502 1.469 1.093 2.08 1.753l168.693 74.452c3.987 1.759 6.559 5.706 6.559 10.063v208.08c0 4.563-2.816 8.651-7.079 10.277" transform="matrix(.17452302 0 0 -.17452302 111.160494 105.000072)"/><path clip-path="url(#h)" d="m0 0 23.88 9.889v-9.146l-23.88-9.888zm-15 5.012v-25.38c0-2.505 1.25-4.844 3.333-6.236 1.252-.836 2.705-1.264 4.168-1.264.971 0 1.945.188 2.868.57l38.88 16.1c2.803 1.161 4.631 3.895 4.631 6.929v25.381c0 2.505-1.25 4.844-3.333 6.236-2.082 1.391-4.721 1.652-7.036.694l-38.88-16.101c-2.804-1.161-4.631-3.895-4.631-6.929" transform="matrix(.17452302 0 0 -.17452302 101.676949 102.84665)"/><path clip-path="url(#i)" d="m0 0c11.976 0 21.72-9.744 21.72-21.72s-9.744-21.72-21.72-21.72c-11.977 0-21.72 9.744-21.72 21.72s9.743 21.72 21.72 21.72m-78.96-93.92h157.2c9.544 0 17.28 7.736 17.28 17.28v41.28c0 9.544-7.736 17.28-17.28 17.28h-26.663c-1.875 26.825-24.284 48.08-51.577 48.08s-49.702-21.255-51.578-48.08h-27.382c-9.543 0-17.28-7.736-17.28-17.28v-41.28c0-9.544 7.737-17.28 17.28-17.28" transform="matrix(.17452302 0 0 -.17452302 50.503272 10.235691)"/><path clip-path="url(#j)" d="m0 0v427.44c0 9.793 7.967 17.76 17.76 17.76h49.32v30h-49.32c-26.335 0-47.76-21.425-47.76-47.76v-427.44c0-26.335 21.425-47.76 47.76-47.76h147.24v30h-147.24c-9.793 0-17.76 7.967-17.76 17.76" transform="matrix(.17452302 0 0 -.17452302 19.235691 99.654274)"/><path clip-path="url(#k)" d="m0 0v-161.141l30-9.02v170.161c0 26.335-21.425 47.76-47.76 47.76h-50.04v-30h50.04c9.793 0 17.76-7.967 17.76-17.76" transform="matrix(.17452302 0 0 -.17452302 81.770748 25.05617)"/></svg>