<svg height="128" viewBox="0 0 128 128" width="128" xmlns="http://www.w3.org/2000/svg" xmlns:xlink="http://www.w3.org/1999/xlink"><clipPath id="a"><path d="m0 720h864v-720h-864z" transform="translate(-255.6787 -245.69821)"/></clipPath><clipPath id="b"><path d="m0 720h864v-720h-864z" transform="translate(-179.3599 -283.41991)"/></clipPath><clipPath id="c"><path d="m0 720h864v-720h-864z" transform="translate(-202.6201 -305.23051)"/></clipPath><clipPath id="d"><path d="m0 720h864v-720h-864z" transform="translate(-162.0498 -312.62011)"/></clipPath><clipPath id="e"><path d="m0 720h864v-720h-864z" transform="translate(-511.99511 -563.99411)"/></clipPath><clipPath id="f"><path d="m0 720h864v-720h-864z" transform="translate(-247.75981 -614.43992)"/></clipPath><clipPath id="g"><path d="m0 720h864v-720h-864z" transform="translate(-692.00002 -577.72021)"/></clipPath><clipPath id="h"><path d="m0 720h864v-720h-864z" transform="translate(-289.52001 -546.75982)"/></clipPath><clipPath id="i"><path d="m0 720h864v-720h-864z" transform="translate(-372.99371 -609.79252)"/></clipPath><clipPath id="j"><path d="m0 720h864v-720h-864z" transform="translate(-414.03081 -613.06841)"/></clipPath><clipPath id="k"><path d="m0 720h864v-720h-864z" transform="translate(-483.88481 -618.64502)"/></clipPath><clipPath id="l"><path d="m0 720h864v-720h-864z" transform="translate(-457.00391 -207.76461)"/></clipPath><clipPath id="m"><path d="m0 720h864v-720h-864z" transform="translate(-495.38961 -213.61431)"/></clipPath><clipPath id="n"><path d="m0 720h864v-720h-864z" transform="translate(-652.36042 -341.55961)"/></clipPath><clipPath id="o"><path d="m0 720h864v-720h-864z" transform="translate(-384.68021 -325.71971)"/></clipPath><clipPath id="p"><path d="m0 720h864v-720h-864z" transform="translate(-521.96002 -325.28031)"/></clipPath><clipPath id="q"><path d="m0 720h864v-720h-864z" transform="translate(-118.1602 -204.40041)"/></clipPath><clipPath id="r"><path d="m0 720h864v-720h-864z" transform="translate(-272.60011 -138.51951)"/></clipPath><clipPath id="s"><path d="m0 720h864v-720h-864z" transform="translate(-323.71971 -130.5996)"/></clipPath><clipPath id="t"><path d="m0 720h864v-720h-864z" transform="translate(-711.08012 -193.2402)"/></clipPath><clipPath id="u"><path d="m0 720h864v-720h-864z" transform="translate(-724.55962 -225.3301)"/></clipPath><path d="m32 4h64a28 28 45 0 1 28 28v64a28 28 135 0 1 -28 28h-64a28 28 45 0 1 -28-28v-64a28 28 135 0 1 28-28z" fill="#fff" height="120" stroke-linecap="round" stroke-linejoin="round" stroke-width="6.02505" transform="matrix(1.0666667 0 0 1.0666667 -4.266667 -4.266667)" width="120" x="4" y="4"/><path clip-path="url(#u)" d="m0 0c-4.25 1.36-8.779 2.11-13.479 2.11-3.331 0-6.561-.381-9.68-1.08v164.84l-124.04-14.58v20.48l147.199 15.74zm0-52.32-34.31-5.84c-3.41 4.43-5.45 9.97-5.45 15.99 0 14.49 11.79 26.28 26.281 26.28 4.929 0 9.54-1.36 13.479-3.73zm-16.34-43.72-36.019-9.28v21.77l38.21 6.5zm-75.46 77.15v156.56l37.04 4.35v-154.97zm-265.559-94.26c.509 2.7.799 5.49.799 8.339 0 8.101-2.19 15.681-6 22.221l305.651 49.04c-.551-2.79-.851-5.67-.851-8.62 0-6.891 1.58-13.42 4.401-19.24zm35.799 223.8v-166.4l-37.04-5.95v168zm-68.64 12.07v-184.55c-3.409.84-6.969 1.3-10.64 1.3-6.559 0-12.789-1.44-18.4-4.02v207.21l160.041 17.12v-21.66zm14.37-284.41-43.41-7.63v23.32l45.33 7.72zm-43.41 75.62c4.74 4.66 11.24 7.54 18.4 7.54 14.49 0 26.28-11.79 26.28-26.281 0-4.219-1-8.21-2.78-11.739l-41.769-7.11c-.04.04-.091.07-.131.12zm-27.699 397.61c-12.161 49.02-38.221 86.84-69.951 101.45 9.14 1.78 19.23 3.01 30.17 3.25 4.18-1.49 17.91-7.13 32.29-21.38 19.48-19.31 32.701-47.04 38.721-80.88zm5.699-368.66c-3.409.97-7 1.49-10.719 1.49-1.9 0-3.77-.141-5.601-.4v171.3c0 4.43-2.919 8.34-7.169 9.59l-123.84 36.48c-3.031.89-6.29.31-8.821-1.58-2.52-1.89-4.009-4.86-4.009-8.01v-102.28-22-20.281c-5 2.121-10.441 3.411-16.13 3.711l-.04 16.57-.06 22-.411 146.31 176.8-52.65zm0-57.7c-1.61-.88-3.34-1.57-5.159-2.03l-25.301 11.05c-1.73 3.19-2.719 6.83-2.719 10.71 0 12.38 10.079 22.46 22.46 22.46 3.879 0 7.529-.99 10.719-2.73zm0-50.9-29.96 13.93v21.769l29.96-13.089zm-36.32 241.23-7.74 2.69c-3.65 1.27-7.639-.66-8.909-4.31s.659-7.64 4.31-8.911l12.339-4.29v-55.449l-45.5 16.84c2.77 1.54 5.351 3.35 7.741 5.39 0 0 10.319 7.28 14.479 22 1.35 4.38 2.08 9.03 2.08 13.84 0 7.61-1.82 14.8-5.04 21.169v26.151c0 1.71-.15 3.38-.42 5.01l26.66-7.85zm-87.44 35.12v-4.21c-6.319-2.8-11.899-6.96-16.399-12.09v44.05l24.37-7.18c-4.95-5.44-7.971-12.66-7.971-20.57m18-.191v.191c0 6.95 5.65 12.599 12.601 12.599 6.949 0 12.599-5.649 12.599-12.599v-6.82c-7.059 4.23-15.309 6.66-24.119 6.66-.36 0-.721-.02-1.081-.031m1.081-17.969c3.52 0 6.899-.62 10.02-1.77 1-.37 1.98-.79 2.929-1.261.321-.159.63-.319.941-.489h.009c.311-.17.621-.34.92-.52.61-.36 1.201-.741 1.77-1.14 2.88-2 5.391-4.51 7.391-7.39.399-.57.779-1.16 1.139-1.77.18-.3.35-.61.521-.92v-.01c.17-.31.329-.62.489-.94.471-.95.891-1.93 1.261-2.93 1.15-3.12 1.769-6.5 1.769-10.02 0-.5-.01-.99-.04-1.48v-.05c-.019-.42-.05-.841-.09-1.25-.009-.1-.02-.19-.029-.28-.051-.46-.11-.92-.181-1.38-.049-.35-.109-.71-.179-1.05 0-.03-.011-.05-.021-.08-.03-.2-.07-.4-.119-.59-.071-.37-.161-.73-.25-1.09-.081-.32-.171-.64-.27-.95-.061-.24-.141-.48-.21-.71-.091-.3-.201-.6-.31-.9-.081-.23-.17-.46-.261-.69-.02-.081-.05-.16-.09-.24-.2-.52-.419-1.03-.66-1.53-.12-.26-.25-.53-.38-.79-4.79-9.55-14.67-16.1-26.069-16.1-11.4 0-21.281 6.55-26.071 16.1-.13.26-.26.53-.38.79-.239.5-.46 1.01-.659 1.53-.04.08-.071.159-.091.24-.089.23-.18.46-.259.69-.111.3-.221.6-.31.9-.071.23-.151.47-.21.71-.101.31-.191.63-.27.95-.091.36-.181.72-.25 1.09-.051.19-.091.39-.121.59-.01.03-.02.05-.02.08-.069.34-.129.7-.18 1.05-.07.46-.13.92-.179 1.38-.011.09-.02.18-.031.28-.04.409-.07.83-.09 1.25v.05c-.029.49-.04.98-.04 1.48 0 3.52.621 6.9 1.77 10.02.371 1 .79 1.98 1.26 2.93.16.32.321.63.49.94v.01c.17.31.34.62.52.92.36.61.74 1.2 1.141 1.77 2 2.88 4.509 5.39 7.389 7.39.571.399 1.16.78 1.77 1.14.301.18.611.35.921.52h.009c.31.17.621.33.94.489.951.471 1.931.891 2.931 1.261 3.12 1.15 6.5 1.77 10.02 1.77m68.359-143.04-102.419 39.97c-.531.789-1.081 1.57-1.65 2.329.15.681.23 1.381.23 2.101v40.08s.559-1.84 4.879-6.44c7.88-6.741 17.991-10.92 29.061-11.281l69.899-25.879zm-13.859-44.52c0-.71.04-1.42.069-2.13l-86.21 37.659c3.56 6.701 5.581 14.331 5.581 22.431 0 .66-.021 1.31-.05 1.95l89.539-34.94c-5.579-6.81-8.929-15.5-8.929-24.97m-85.46-8.42-25.111 14.65-1.28 16.52 26.391-11.52zm-40.6 97.36c8.879-.74 16.719-5.22 21.91-11.871 2.73-3.869 3.69-5.549 5.199-9.909.9-2.91 1.391-6 1.391-9.2 0-5.681-1.541-11.01-4.221-15.6l-24.179 10.57zm-3.351 225.72-2.279.68c-1.37 6.3-2.861 14.29-4.031 23.4l151.241 86.66c3.049-7.85 5.679-16.18 7.809-24.9zm-8.41 54.65c-.02 3.58.051 7.09.2 10.53l39.351 21.55c3.879 2.12 5.299 6.98 3.179 10.86-2.13 3.87-6.99 5.3-10.86 3.17l-29.93-16.38c4.91 34.1 19.111 60.48 42.421 78.64 12.889 10.05 25.69 15.09 38.23 15.09 5.609 0 11.17-1.01 16.67-3.04l-67.59-40.8c-3.79-2.28-5-7.2-2.721-10.98 1.5-2.49 4.15-3.87 6.86-3.87 1.41 0 2.83.37 4.12 1.15l75.351 45.49c4.569-3.48 8.959-7.65 13.129-12.45l-64.33-35.22c-3.88-2.12-5.299-6.98-3.18-10.85 1.45-2.66 4.2-4.16 7.021-4.16 1.299 0 2.619.31 3.84.98l66.379 36.34c3.1-4.72 6.01-9.82 8.71-15.24l-146.41-83.89c-.26 4.24-.42 8.61-.44 13.08m487.64 157.1c3.071-.69 13.271-3.46 25.271-12.05l-31.341-2.51c-4.399-.35-7.689-4.2-7.34-8.61.34-4.18 3.84-7.36 7.97-7.36.211 0 .431.01.65.03l46.25 3.69c6.481-7.37 12.231-15.95 17.191-25.63l-91.29-6.89-.931 4.31c-1.149 5.37-6.09 9.06-11.559 8.66l-88.201-6.48c-3.139-.23-6.03-1.8-7.939-4.3-1.901-2.5-2.651-5.7-2.04-8.79l.34-1.73-119.381-9c-3.449 9.23-7.34 17.43-11.449 24.68l28.859 2.31c4.411.35 7.69 4.2 7.34 8.61-.35 4.4-4.21 7.69-8.61 7.33l-37.46-2.99c-4.93 6.69-9.91 12.23-14.6 16.79zm65.38-2.49c27.47-12.77 49.5-40.71 65.601-83.15l-36.24-2.84c-11.63 49.48-34.151 76.41-51.611 90.48-1.17.94-2.34 1.84-3.5 2.7 7.901-.86 16.66-2.97 25.75-7.19m-89.74-95.31-4.88 22.68 94.78 7.15c2.68-6.99 5.02-14.41 6.991-22.24zm-3.239-164.11v-45.39c0-17.23-12.261-32.18-29.16-35.56-9.58-1.92-19.401.53-26.951 6.729-7.559 6.191-11.889 15.341-11.889 25.111v41.84zm-91.731 188.04 66.271 4.87 10.059-46.73c2-9.3.071-18.68-5.45-26.43-5.519-7.74-13.76-12.63-23.2-13.78-17.27-2.09-33.439 9.65-36.8 26.73zm-132.75-41.74c-1.389 8.31-3.139 16.07-5.16 23.29l117.38 8.85 4.521-23.01zm121.01-12.6 1.04-5.25c5.13-26.12 28.351-44.72 54.41-44.72 2.191 0 4.391.14 6.611.4 15.429 1.87 29.45 10.2 38.469 22.85 7.361 10.33 10.911 22.86 10.191 35.38l4.429.35c3.291-33.75-16.02-63.21-49.639-68.81-34.561-5.76-57.96 12.96-63.721 32.04-3.439 11.39-5.849 21.24-7.239 27.33zm125.471-179.09v7.13l35.399 4.17v-25.61l-20.88-2.75c-4.099-.54-7-4.31-6.45-8.42.49-3.77 3.721-6.52 7.42-6.52.33 0 .66.02.99.07l18.92 2.49v-20.87l-46.849-6.18c-4.111-.54-7-4.31-6.46-8.41.5-3.78 3.719-6.52 7.429-6.52.321 0 .651.02.991.06l44.889 5.92v-20.87l-71.76-9.46c-4.11-.54-7-4.311-6.46-8.41.5-3.78 3.72-6.53 7.43-6.53.33 0 .66.03.99.07l69.8 9.2v-44.68l-189.76-30.44v50.11l48.54 6.4c4.111.54 7 4.31 6.46 8.41-.54 4.11-4.32 7-8.419 6.46l-46.581-6.14v20.87l34.201 4.51c4.109.54 7 4.31 6.46 8.42-.54 4.1-4.321 6.99-8.42 6.45l-32.241-4.25v20.87l25.93 3.42c4.11.54 7 4.31 6.46 8.42-.54 4.1-4.319 6.99-8.42 6.45l-23.97-3.16v28.31l42.42 4.98c.651-15.511 7.8-29.92 19.88-39.82 9.851-8.07 21.99-12.35 34.46-12.35 3.58 0 7.181.35 10.76 1.06 27.141 5.43 46.841 29.46 46.841 57.14m165.55 83.91c-.821.74-1.75 1.34-2.731 1.8l.061.1-.691.16c-1.019.39-2.099.64-3.2.72l-163.149 36.92 156.5 77.22.24.01c3.359.27 6.42 2.06 8.29 4.87 1.88 2.81 2.35 6.32 1.3 9.53-18.46 56.2-46.181 93.12-82.391 109.74-35.8 16.42-67.819 7.08-75.83 4.26l-321.68-21.49c-.719-.05-1.42-.17-2.099-.35-8.721 4.67-14.731 6.35-15.18 6.47-.98.26-1.991.39-3.011.38-61.159-.76-99.139-28.34-100.719-29.52-.451-.33-.851-.69-1.23-1.07-3.681-2.21-7.431-4.77-11.23-7.73-34.991-27.26-53.261-70.98-52.841-126.44.31-40.86 10.52-73.55 10.95-74.92.07-.22.161-.43.24-.64l.691-247.35c.009-4.36 2.599-8.3 6.599-10.05l6.66-2.91 2.61-33.93c.281-3.61 2.31-6.84 5.43-8.66l34.56-20.16c1.7-.99 3.61-1.5 5.541-1.5 1.109 0 2.219.17 3.299.51l25.201 7.92c4.58 1.44 7.699 5.68 7.699 10.49v8.49l48.56-21.21v-38.401c0-4.279 2.48-8.169 6.36-9.979l51.12-23.76c1.46-.67 3.051-1.02 4.64-1.02.641 0 1.27.049 1.9.17l65.52 11.52c4.931.859 8.65 4.95 9.06 9.93l3.08 37.48 253.67 43.17 1.47-10.69c.49-3.531 2.651-6.6 5.801-8.25l31.68-16.56c1.589-.83 3.339-1.25 5.099-1.25.92 0 1.84.12 2.74.35l47.52 12.24c4.41 1.13 7.671 4.87 8.19 9.39l3.79 32.87 4.411.75c5.28.9 9.149 5.48 9.149 10.84v261.36c0 3.12-1.329 6.1-3.649 8.18" transform="matrix(.14853388 0 0 -.14853388 110.732255 84.097247)"/><path clip-path="url(#t)" d="m0 0c-5.567 0-10.08-4.514-10.08-10.08 0-5.567 4.513-10.08 10.08-10.08s10.08 4.513 10.08 10.08c0 5.566-4.513 10.08-10.08 10.08" transform="matrix(.14853388 0 0 -.14853388 108.730093 88.863681)"/><path clip-path="url(#s)" d="m0 0c-5.567 0-10.08-4.513-10.08-10.08 0-5.566 4.513-10.079 10.08-10.079s10.08 4.513 10.08 10.079c0 5.567-4.513 10.08-10.08 10.08" transform="matrix(.14853388 0 0 -.14853388 51.193953 98.167941)"/><path clip-path="url(#r)" d="m0 0c-4.573 0-8.28-3.707-8.28-8.279 0-4.574 3.707-8.281 8.28-8.281s8.28 3.707 8.28 8.281c0 4.572-3.707 8.279-8.28 8.279" transform="matrix(.14853388 0 0 -.14853388 43.600959 96.991562)"/><path clip-path="url(#q)" d="m0 0c-5.368 0-9.72-4.353-9.72-9.721s4.352-9.719 9.72-9.719 9.72 4.351 9.72 9.719-4.352 9.721-9.72 9.721" transform="matrix(.14853388 0 0 -.14853388 20.661401 87.206014)"/><path clip-path="url(#p)" d="m0 0c6.075 0 11 4.925 11 11v32.16c0 6.075-4.925 11-11 11s-11-4.925-11-11v-32.16c0-6.075 4.925-11 11-11" transform="matrix(.14853388 0 0 -.14853388 80.639353 69.251254)"/><path clip-path="url(#o)" d="m0 0c-4.772 0-8.64-3.868-8.64-8.64 0-4.771 3.868-8.639 8.64-8.639 4.771 0 8.64 3.868 8.64 8.639 0 4.772-3.869 8.64-8.64 8.64" transform="matrix(.14853388 0 0 -.14853388 60.248652 69.185989)"/><path clip-path="url(#n)" d="m0 0c4.771 0 8.64 3.869 8.64 8.641 0 4.771-3.869 8.639-8.64 8.639-4.772 0-8.641-3.868-8.641-8.639 0-4.772 3.869-8.641 8.641-8.641" transform="matrix(.14853388 0 0 -.14853388 100.008227 66.833226)"/><path clip-path="url(#m)" d="m0 0-11.544-1.76c-4.095-.624-6.908-4.449-6.284-8.544.565-3.712 3.762-6.371 7.404-6.371.376 0 .757.029 1.14.087l11.544 1.76c4.094.624 6.908 4.449 6.284 8.544-.623 4.095-4.449 6.907-8.544 6.284" transform="matrix(.14853388 0 0 -.14853388 76.692745 85.837437)"/><path clip-path="url(#l)" d="m0 0-12.014-1.831c-4.094-.624-6.908-4.449-6.284-8.544.566-3.712 3.762-6.371 7.404-6.371.376 0 .757.028 1.14.087l12.014 1.831c4.094.624 6.908 4.449 6.284 8.544-.623 4.095-4.454 6.912-8.544 6.284" transform="matrix(.14853388 0 0 -.14853388 70.991172 86.706321)"/><path clip-path="url(#k)" d="m0 0c.214 0 .429.009.646.026l53.314 4.256c4.404.351 7.689 4.207 7.338 8.611-.352 4.404-4.209 7.689-8.611 7.338l-53.315-4.256c-4.404-.351-7.689-4.207-7.338-8.611.334-4.188 3.836-7.364 7.966-7.364" transform="matrix(.14853388 0 0 -.14853388 74.983897 25.676656)"/><path clip-path="url(#j)" d="m0 0c.213 0 .429.009.646.026l15.138 1.208c4.404.352 7.689 4.207 7.338 8.612-.352 4.404-4.215 7.686-8.612 7.338l-15.138-1.209c-4.404-.351-7.689-4.207-7.338-8.611.335-4.188 3.836-7.364 7.966-7.364" transform="matrix(.14853388 0 0 -.14853388 64.608211 26.504971)"/><path clip-path="url(#i)" d="m0 0c.213 0 .429.009.646.026l18.028 1.439c4.405.352 7.69 4.207 7.338 8.612-.352 4.404-4.213 7.69-8.611 7.338l-18.029-1.44c-4.404-.351-7.689-4.207-7.338-8.611.335-4.188 3.836-7.364 7.966-7.364" transform="matrix(.14853388 0 0 -.14853388 58.51281 26.991552)"/><path clip-path="url(#h)" d="m0 0c5.169 0 9.36 4.191 9.36 9.36 0 5.17-4.191 9.36-9.36 9.36s-9.36-4.19-9.36-9.36c0-5.169 4.191-9.36 9.36-9.36" transform="matrix(.14853388 0 0 -.14853388 46.114138 36.354044)"/><path clip-path="url(#g)" d="m0 0c5.169 0 9.36 4.19 9.36 9.36 0 5.169-4.191 9.36-9.36 9.36s-9.36-4.191-9.36-9.36c0-5.17 4.191-9.36 9.36-9.36" transform="matrix(.14853388 0 0 -.14853388 105.896058 31.755375)"/><path clip-path="url(#f)" d="m0 0c5.169 0 9.36 4.191 9.36 9.36s-4.191 9.36-9.36 9.36-9.36-4.191-9.36-9.36 4.191-9.36 9.36-9.36" transform="matrix(.14853388 0 0 -.14853388 39.911333 26.301256)"/><path clip-path="url(#e)" d="m0 0c-1.169 5.962-6.942 9.852-12.909 8.681-5.962-1.168-9.849-6.948-8.681-12.91l6.84-34.919c1.028-5.249 5.629-8.888 10.783-8.888.7 0 1.412.067 2.126.207 5.962 1.168 9.849 6.947 8.681 12.909z" transform="matrix(.14853388 0 0 -.14853388 79.159224 33.794167)"/><path clip-path="url(#d)" d="m0 0c-2.88-2-5.39-4.51-7.39-7.39 2 2.89 4.5 5.39 7.39 7.39" fill="#00a99d" transform="matrix(.14853388 0 0 -.14853388 27.180494 71.131723)"/><path clip-path="url(#c)" d="m0 0c-2 2.88-4.51 5.39-7.39 7.39 2.89-2 5.39-4.5 7.39-7.39" fill="#00a99d" transform="matrix(.14853388 0 0 -.14853388 33.206557 72.229329)"/><path clip-path="url(#b)" d="m0 0c-3.678 0-6.66 2.981-6.66 6.66 0 3.678 2.982 6.66 6.66 6.66s6.66-2.982 6.66-6.66c0-3.679-2.982-6.66-6.66-6.66m0 27.54c-11.432 0-20.7-9.268-20.7-20.7s9.268-20.7 20.7-20.7c11.433 0 20.7 9.268 20.7 20.7s-9.267 20.7-20.7 20.7" transform="matrix(.14853388 0 0 -.14853388 29.75163 75.468942)"/><path clip-path="url(#a)" d="m0 0c-.659 0-1.33.12-1.982.372l-27 10.44c-2.833 1.095-4.242 4.28-3.146 7.113 1.095 2.832 4.278 4.243 7.113 3.146l27-10.439c2.833-1.096 4.242-4.28 3.146-7.113-.843-2.181-2.924-3.519-5.131-3.519" transform="matrix(.14853388 0 0 -.14853388 41.087558 81.071893)"/></svg>