<svg height="128" viewBox="0 0 128 128" width="128" xmlns="http://www.w3.org/2000/svg" xmlns:xlink="http://www.w3.org/1999/xlink"><linearGradient id="a" gradientTransform="matrix(103.2 -88.32 -88.32 -103.2 1.323343 117.63956)" gradientUnits="userSpaceOnUse" spreadMethod="pad" x1="0" x2="1" y1="0" y2="0"><stop offset="0" stop-color="#8cb5e9"/><stop offset="1" stop-color="#2e466a"/></linearGradient><path d="m0 0h67.029c16.197 0 29.325-13.129 29.325-29.325v-67.029c0-16.197-13.128-29.326-29.325-29.326h-67.029c-16.196 0-29.325 13.129-29.325 29.326v67.029c0 16.196 13.129 29.325 29.325 29.325" fill="#17233a" transform="matrix(1.01845957 0 0 -1.01845957 29.866735 .000198)"/><path d="m30.486 126.84c-16.197 0-29.326-13.129-29.326-29.325v-67.029c0-16.197 13.129-29.326 29.326-29.326h67.029c16.196 0 29.325 13.129 29.325 29.326v67.029c0 16.196-13.129 29.325-29.325 29.325zm-27.902-96.354v67.029c0 15.385 12.516 27.901 27.902 27.901h67.029c15.385 0 27.901-12.516 27.901-27.901v-67.029c0-15.387-12.516-27.902-27.901-27.902h-67.029c-15.386 0-27.902 12.515-27.902 27.902" fill="url(#a)" transform="matrix(1.01845957 0 0 -1.01845957 -1.181413 129.181412)"/><g fill="#eaedf8"><path d="m0 0c0 1.77-1.44 3.209-3.209 3.209h-10.682c-1.769 0-3.209-1.439-3.209-3.209v-10.932c0-1.77 1.44-3.209 3.209-3.209h10.682c1.769 0 3.209 1.439 3.209 3.209zm-3.089-10.932c0-.067-.055-.12-.12-.12h-10.682c-.066 0-.12.053-.12.12v10.932c0 .066.054.121.12.121h10.682c.065 0 .12-.055.12-.121z" transform="matrix(1.01845957 0 0 -1.01845957 41.311879 59.17871)"/><path d="m0 0 1.367 1.316s.628.566.062 1.613c-.325.602-.953.884-1.429 1.017v.006c0 1.77-1.44 3.21-3.209 3.21h-10.682c-1.769 0-3.209-1.44-3.209-3.21v-11.979c0-1.77 1.44-3.21 3.209-3.21h10.682c1.769 0 3.209 1.44 3.209 3.21zm-3.209-8.147h-10.682c-.066 0-.12.054-.12.12v11.979c0 .067.054.12.12.12h10.682c.065 0 .12-.053.12-.12v-1.163l-5.137-6.017-2.049 2.014c-.603.603-1.581.603-2.184 0s-.603-1.581 0-2.184l3.309-3.31c.29-.29.683-.452 1.092-.452h.022c.417.006.814.181 1.1.483l3.847 3.703v-5.053c0-.066-.055-.12-.12-.12" transform="matrix(1.01845957 0 0 -1.01845957 41.311879 40.097054)"/><path d="m0 0h-10.681c-1.77 0-3.21-1.439-3.21-3.209v-10.933c0-1.769 1.44-3.209 3.21-3.209h10.681c1.77 0 3.209 1.44 3.209 3.209v10.933c0 1.77-1.439 3.209-3.209 3.209m.12-14.142c0-.066-.054-.12-.12-.12h-10.681c-.066 0-.12.054-.12.12v10.933c0 .066.054.12.12.12h10.681c.066 0 .12-.054.12-.12z" transform="matrix(1.01845957 0 0 -1.01845957 38.043234 78.306193)"/><path d="m0 0c0 1.012-.82 1.833-1.833 1.833h-24.628c-1.012 0-1.833-.821-1.833-1.833s.821-1.833 1.833-1.833h24.628c1.013 0 1.833.821 1.833 1.833" transform="matrix(1.01845957 0 0 -1.01845957 75.774925 38.478824)"/><path d="m0 0c-1.012 0-1.833-.82-1.833-1.833 0-1.012.821-1.832 1.833-1.832h15.903c1.012 0 1.832.82 1.832 1.832 0 1.013-.82 1.833-1.832 1.833z" transform="matrix(1.01845957 0 0 -1.01845957 48.825055 44.930765)"/><path d="m0 0c.098.038.191.084.28.14.266.17.727.55.698 1.133-.018.346-.093.602-.229.81-.226.344-.63.527-1.041.527h-10.754c-1.009 0-1.874-.789-1.892-1.798-.02-1.027.808-1.867 1.832-1.867h8.374z" transform="matrix(1.01845957 0 0 -1.01845957 60.136475 61.808881)"/><path d="m0 0-30.409 11.602c-.445.17-.939.168-1.383-.005l-29.822-11.645c-.283-.11-.523-.281-.715-.491-.428-.362-.681-.897-.681-1.464v-36.021c0-.758.446-1.446 1.137-1.754l30.333-13.53c.25-.111.516-.166.781-.166.366 0 .73.105 1.046.31.135.087.256.19.362.306l29.442 12.993c.695.307 1.144.996 1.144 1.757v36.314c0 .797-.491 1.51-1.235 1.794m-31.085 7.75 25.277-9.644-6.566-2.641-25.001 9.83zm-1.593-56.346-26.492 11.817v31.945l26.211-10.437c.081-.126.176-.241.281-.342zm1.814 36.624-25.119 10.001 11.159 4.293 24.72-9.96zm28.26-24.885-26.235-11.579v33.141l10.395 4.181v-6.794c0-.526.533-.883 1.018-.684l6.495 2.663c.523.215.865.723.865 1.288v6.896l7.462 3.002z" transform="matrix(1.01845957 0 0 -1.01845957 114.683233 68.219066)"/><path d="m0 0v-4.43c0-.437.218-.845.581-1.088.219-.146.473-.22.728-.22.17 0 .339.032.501.099l6.785 2.81c.489.202.808.68.808 1.209v4.43c0 .437-.218.845-.582 1.087-.363.244-.824.29-1.228.122l-6.785-2.81c-.49-.202-.808-.68-.808-1.209m2.617-.875 4.168 1.726v-1.596l-4.168-1.726z" transform="matrix(1.01845957 0 0 -1.01845957 99.70679 102.67264)"/></g><path d="m0 0h27.435c1.665 0 3.016 1.35 3.016 3.016v7.204c0 1.666-1.351 3.016-3.016 3.016h-4.653c-.328 4.681-4.239 8.391-9.002 8.391s-8.674-3.71-9.001-8.391h-4.779c-1.666 0-3.016-1.35-3.016-3.016v-7.204c0-1.666 1.35-3.016 3.016-3.016m13.78 16.391c2.09 0 3.791-1.7 3.791-3.79s-1.701-3.791-3.791-3.791-3.791 1.701-3.791 3.791 1.701 3.79 3.791 3.79" fill="#4d78be" transform="matrix(1.01845957 0 0 -1.01845957 36.21958 25.937105)"/><path d="m0 0v74.598c0 1.709 1.39 3.1 3.1 3.1h8.607v5.236h-8.607c-4.597 0-8.336-3.74-8.336-8.336v-74.598c0-4.596 3.739-8.335 8.336-8.335h25.696v5.235h-25.696c-1.71 0-3.1 1.391-3.1 3.1" fill="#eaedf8" transform="matrix(1.01845957 0 0 -1.01845957 18.409472 100.31246)"/><path d="m0 0v-28.123l5.236-1.574v29.697c0 4.596-3.739 8.335-8.336 8.335h-8.732v-5.235h8.732c1.709 0 3.1-1.391 3.1-3.1" fill="#eaedf8" transform="matrix(1.01845957 0 0 -1.01845957 82.098535 24.337309)"/><path d="m0 0v-2.757l-.02-.043v-6.751c0-.525.534-.883 1.019-.683l6.495 2.663c.523.215.864.722.864 1.288v6.895 2.328l-2.307.882-25.001 9.83-7.449-2.972 24.719-9.96-.037-.015z" fill="#4d78be" transform="matrix(1.01845957 0 0 -1.01845957 95.918319 76.73074)"/><g fill="#6797de"><path d="m0 0-7.73-3.103-.018-.022 1.697-.697v-2.757l8.359 3.369v2.328z" transform="matrix(1.01845957 0 0 -1.01845957 102.080819 72.837882)"/><path d="m0 0c-.325.602-.953.884-1.429 1.017v.006s-1.553.563-2.154-.082c-.506-.545-.936-1.082-.936-1.082l-5.136-6.016-2.049 2.013c-.603.604-1.581.604-2.184 0-.603-.603-.603-1.581 0-2.184l3.309-3.309c.289-.289.683-.452 1.092-.452h.022c.417.006.814.18 1.1.483l3.846 3.703 3.09 2.974 1.367 1.316s.627.566.062 1.613" transform="matrix(1.01845957 0 0 -1.01845957 42.767461 37.113782)"/></g></svg>